# xmcd CD database file
#
# Track frame offsets:
#       150
#       18580
#       33034
#       43836
#       55659
#       67740
#       80226
#       91513
#       105340
#       114394
#       131740
#       145299
#       158647
#       169314
#       175789
#       199176
#       220677
#       246185
#
# Disc length: 3466 seconds
#
# Revision: 0
# Processed by: cddbd v1.4PL0 Copyright (c) Steve Scherf et al.
# Submitted via: jack 2.99.9
#
DISCID=ea0d8812
DTITLE=Witalij Petraniuk - Pie¶ni Bu³ata Okud¿awy
DYEAR=1900
DGENRE=
TTITLE0=Gru¼iñska Pie¶ñ
TTITLE1=Malarze
TTITLE2=Piosenka o b³êkitnym baloniku
TTITLE3=Spotkanie z Nadziej±
TTITLE4=Piosenka o nocnej Moskwie
TTITLE5=Katarynka
TTITLE6=Kwiecieñ
TTITLE7=Rodzina z prowincji fotografuje sie przed pomnikiem
TTITLE7=Puszkina w Moskwie
TTITLE8=Szczê¶ciarz
TTITLE9=Aleksander Sergiejewicz Puszkin
TTITLE10=Nadia, Nadieñka
TTITLE11=Smoleñska Droga
TTITLE12=Stara ¿o³nierska pie¶ñ
TTITLE13=Nigdy nie buja³em
TTITLE14=Modlitwa
TTITLE15=Stare orkiestry
TTITLE16=Ach, Panie, Panowie
TTITLE17=Po¿egnanie z Polsk±
EXTD=
EXTT0=
EXTT1=
EXTT2=
EXTT3=
EXTT4=
EXTT5=
EXTT6=
EXTT7=
EXTT8=
EXTT9=
EXTT10=
EXTT11=
EXTT12=
EXTT13=
EXTT14=
EXTT15=
EXTT16=tekst Agnieszka Osiecka)
EXTT17=
PLAYORDER=
